<mxfile host="app.diagrams.net" agent="Mozilla/5.0 (Windows NT 10.0; Win64; x64) AppleWebKit/537.36 (KHTML, like Gecko) Chrome/133.0.0.0 Safari/537.36 Edg/133.0.0.0" version="26.0.12">
  <diagram name="Page-1" id="GAnhlbHT-EmA44UJFXI1">
    <mxGraphModel dx="818" dy="1559" grid="1" gridSize="10" guides="1" tooltips="1" connect="1" arrows="1" fold="1" page="1" pageScale="1" pageWidth="850" pageHeight="1100" math="0" shadow="0">
      <root>
        <mxCell id="0" />
        <mxCell id="1" parent="0" />
        <mxCell id="pvH0t0SYWXMb1PGUtLdy-1" value="Within&lt;div&gt;Range&lt;/div&gt;" style="rounded=1;whiteSpace=wrap;html=1;" vertex="1" parent="1">
          <mxGeometry x="365" y="80" width="120" height="60" as="geometry" />
        </mxCell>
        <mxCell id="pvH0t0SYWXMb1PGUtLdy-2" value="" style="endArrow=none;html=1;rounded=0;exitX=0.5;exitY=0;exitDx=0;exitDy=0;" edge="1" parent="1" source="pvH0t0SYWXMb1PGUtLdy-12" target="pvH0t0SYWXMb1PGUtLdy-1">
          <mxGeometry width="50" height="50" relative="1" as="geometry">
            <mxPoint x="290" y="220" as="sourcePoint" />
            <mxPoint x="365" y="140" as="targetPoint" />
          </mxGeometry>
        </mxCell>
        <mxCell id="pvH0t0SYWXMb1PGUtLdy-5" value="Decision" style="rounded=1;whiteSpace=wrap;html=1;" vertex="1" parent="1">
          <mxGeometry width="120" height="60" as="geometry" />
        </mxCell>
        <mxCell id="pvH0t0SYWXMb1PGUtLdy-9" value="Multiple&lt;div&gt;Decisions&lt;/div&gt;" style="shape=hexagon;perimeter=hexagonPerimeter2;whiteSpace=wrap;html=1;fixedSize=1;" vertex="1" parent="1">
          <mxGeometry y="80" width="120" height="80" as="geometry" />
        </mxCell>
        <mxCell id="pvH0t0SYWXMb1PGUtLdy-10" value="Yes" style="text;html=1;align=center;verticalAlign=middle;whiteSpace=wrap;rounded=0;" vertex="1" parent="1">
          <mxGeometry x="330" y="150" width="20" height="30" as="geometry" />
        </mxCell>
        <mxCell id="pvH0t0SYWXMb1PGUtLdy-12" value="Random&lt;div&gt;multiple&lt;/div&gt;&lt;div&gt;decisions&lt;/div&gt;" style="shape=hexagon;perimeter=hexagonPerimeter2;whiteSpace=wrap;html=1;fixedSize=1;" vertex="1" parent="1">
          <mxGeometry x="255" y="220" width="120" height="80" as="geometry" />
        </mxCell>
        <mxCell id="pvH0t0SYWXMb1PGUtLdy-13" value="Action" style="whiteSpace=wrap;html=1;aspect=fixed;" vertex="1" parent="1">
          <mxGeometry x="20" y="180" width="80" height="80" as="geometry" />
        </mxCell>
        <mxCell id="pvH0t0SYWXMb1PGUtLdy-14" value="" style="endArrow=none;html=1;rounded=0;" edge="1" parent="1">
          <mxGeometry width="50" height="50" relative="1" as="geometry">
            <mxPoint x="205" y="380" as="sourcePoint" />
            <mxPoint x="280" y="300" as="targetPoint" />
          </mxGeometry>
        </mxCell>
        <mxCell id="pvH0t0SYWXMb1PGUtLdy-15" value="" style="endArrow=none;html=1;rounded=0;" edge="1" parent="1">
          <mxGeometry width="50" height="50" relative="1" as="geometry">
            <mxPoint x="315" y="460" as="sourcePoint" />
            <mxPoint x="315" y="300" as="targetPoint" />
          </mxGeometry>
        </mxCell>
        <mxCell id="pvH0t0SYWXMb1PGUtLdy-16" value="" style="endArrow=none;html=1;rounded=0;" edge="1" parent="1">
          <mxGeometry width="50" height="50" relative="1" as="geometry">
            <mxPoint x="425" y="390" as="sourcePoint" />
            <mxPoint x="355" y="300" as="targetPoint" />
          </mxGeometry>
        </mxCell>
        <mxCell id="pvH0t0SYWXMb1PGUtLdy-17" value="Choice 1" style="text;html=1;align=center;verticalAlign=middle;whiteSpace=wrap;rounded=0;" vertex="1" parent="1">
          <mxGeometry x="195" y="320" width="40" height="30" as="geometry" />
        </mxCell>
        <mxCell id="pvH0t0SYWXMb1PGUtLdy-18" value="Choice 2" style="text;html=1;align=center;verticalAlign=middle;whiteSpace=wrap;rounded=0;" vertex="1" parent="1">
          <mxGeometry x="275" y="380" width="40" height="30" as="geometry" />
        </mxCell>
        <mxCell id="pvH0t0SYWXMb1PGUtLdy-20" value="Choice 3" style="text;html=1;align=center;verticalAlign=middle;whiteSpace=wrap;rounded=0;" vertex="1" parent="1">
          <mxGeometry x="390" y="320" width="45" height="30" as="geometry" />
        </mxCell>
        <mxCell id="pvH0t0SYWXMb1PGUtLdy-21" value="Dash" style="whiteSpace=wrap;html=1;aspect=fixed;" vertex="1" parent="1">
          <mxGeometry x="165" y="380" width="80" height="80" as="geometry" />
        </mxCell>
        <mxCell id="pvH0t0SYWXMb1PGUtLdy-24" value="" style="endArrow=none;html=1;rounded=0;exitX=0.447;exitY=0.004;exitDx=0;exitDy=0;exitPerimeter=0;" edge="1" parent="1" source="pvH0t0SYWXMb1PGUtLdy-28">
          <mxGeometry width="50" height="50" relative="1" as="geometry">
            <mxPoint x="560" y="210" as="sourcePoint" />
            <mxPoint x="470" y="140" as="targetPoint" />
          </mxGeometry>
        </mxCell>
        <mxCell id="pvH0t0SYWXMb1PGUtLdy-27" value="Get&lt;div&gt;closer&lt;/div&gt;" style="whiteSpace=wrap;html=1;aspect=fixed;" vertex="1" parent="1">
          <mxGeometry x="485" y="365" width="80" height="80" as="geometry" />
        </mxCell>
        <mxCell id="pvH0t0SYWXMb1PGUtLdy-28" value="Coin flip" style="rounded=1;whiteSpace=wrap;html=1;" vertex="1" parent="1">
          <mxGeometry x="520" y="225" width="120" height="60" as="geometry" />
        </mxCell>
        <mxCell id="pvH0t0SYWXMb1PGUtLdy-29" value="" style="endArrow=none;html=1;rounded=0;" edge="1" parent="1">
          <mxGeometry width="50" height="50" relative="1" as="geometry">
            <mxPoint x="520" y="365" as="sourcePoint" />
            <mxPoint x="560" y="285" as="targetPoint" />
          </mxGeometry>
        </mxCell>
        <mxCell id="pvH0t0SYWXMb1PGUtLdy-30" value="" style="endArrow=none;html=1;rounded=0;" edge="1" parent="1">
          <mxGeometry width="50" height="50" relative="1" as="geometry">
            <mxPoint x="660" y="365" as="sourcePoint" />
            <mxPoint x="605" y="285" as="targetPoint" />
          </mxGeometry>
        </mxCell>
        <mxCell id="pvH0t0SYWXMb1PGUtLdy-31" value="Heads" style="text;html=1;align=center;verticalAlign=middle;whiteSpace=wrap;rounded=0;" vertex="1" parent="1">
          <mxGeometry x="470" y="305" width="60" height="30" as="geometry" />
        </mxCell>
        <mxCell id="pvH0t0SYWXMb1PGUtLdy-32" value="Tails" style="text;html=1;align=center;verticalAlign=middle;whiteSpace=wrap;rounded=0;" vertex="1" parent="1">
          <mxGeometry x="640" y="295" width="60" height="30" as="geometry" />
        </mxCell>
        <mxCell id="pvH0t0SYWXMb1PGUtLdy-33" value="Energy&lt;div&gt;blast&lt;/div&gt;" style="whiteSpace=wrap;html=1;aspect=fixed;" vertex="1" parent="1">
          <mxGeometry x="620" y="365" width="80" height="80" as="geometry" />
        </mxCell>
        <mxCell id="pvH0t0SYWXMb1PGUtLdy-38" value="Power&lt;div&gt;up&lt;/div&gt;" style="whiteSpace=wrap;html=1;aspect=fixed;" vertex="1" parent="1">
          <mxGeometry x="275" y="460" width="80" height="80" as="geometry" />
        </mxCell>
        <mxCell id="pvH0t0SYWXMb1PGUtLdy-44" value="Jump&lt;div&gt;back&lt;/div&gt;" style="whiteSpace=wrap;html=1;aspect=fixed;" vertex="1" parent="1">
          <mxGeometry x="380" y="390" width="80" height="80" as="geometry" />
        </mxCell>
        <mxCell id="pvH0t0SYWXMb1PGUtLdy-45" value="No" style="text;html=1;align=center;verticalAlign=middle;whiteSpace=wrap;rounded=0;" vertex="1" parent="1">
          <mxGeometry x="520" y="150" width="20" height="30" as="geometry" />
        </mxCell>
      </root>
    </mxGraphModel>
  </diagram>
</mxfile>
